

General
Complete name                    :Tere Liye - Veer-Zaara (720p HD Song).MP4
Format                           : MPEG-4
Format profile                   : Base Media / Version 2
Codec ID                         : mp42
File size                        : 114 MiB
Duration                         : 5mn 33s
Overall bit rate                 : 2 876 Kbps
Movie name                       : Shrivastava
Encoded date                     : UTC 2010-10-11 10:30:46
Tagged date                      : UTC 2010-10-11 10:30:46
gsst                             : 0
gstd                             : 333370
gssd                             : BB64FFB86HH1357973264138911
gshh                             :

Video
ID                               : 1
Format                           : AVC
Format/Info                      : Advanced Video Codec
Format profile                   : High@L3.1
Format settings, CABAC           : Yes
Format settings, ReFrames        : 1 frame
Format settings, GOP             : M=1, N=60
Codec ID                         : avc1
Codec ID/Info                    : Advanced Video Coding
Duration                         : 5mn 33s
Bit rate mode                    : Variable
Bit rate                         : 2 742 Kbps
Maximum bit rate                 : 6 484 Kbps
Width                            : 1 280 pixels
Height                           : 720 pixels
Display aspect ratio             : 16:9
Frame rate mode                  : Variable
Frame rate                       : 23.976 fps
Minimum frame rate               : 17.241 fps
Maximum frame rate               : 24.390 fps
Color space                      : YUV
Chroma subsampling               : 4:2:0
Bit depth                        : 8 bits
Scan type                        : Progressive
Bits/(Pixel*Frame)               : 0.124
Stream size                      : 109 MiB (95%)
Tagged date                      : UTC 2010-10-11 10:30:52

Audio
ID                               : 2
Format                           : AAC
Format/Info                      : Advanced Audio Codec
Format profile                   : LC
Codec ID                         : 40
Duration                         : 5mn 33s
Bit rate mode                    : Variable
Bit rate                         : 128 Kbps
Maximum bit rate                 : 198 Kbps
Channel(s)                       : 2 channels
Channel positions                : Front: L R
Sampling rate                    : 44.1 KHz
Compression mode                 : Lossy
Stream size                      : 5.09 MiB (4%)
Title                            : (C) 2007 Google Inc. v08.13.2007.
Encoded date                     : UTC 2010-10-11 10:30:50
Tagged date                      : UTC 2010-10-11 10:30:52



